<?xml version="1.0" encoding="utf-8"?>
<!-- Generator: Adobe Illustrator 20.1.0, SVG Export Plug-In . SVG Version: 6.00 Build 0)  -->
<svg version="1.1" id="レイヤー_1" xmlns="http://www.w3.org/2000/svg" xmlns:xlink="http://www.w3.org/1999/xlink" x="0px"
	 y="0px" viewBox="0 0 300 300" enable-background="new 0 0 300 300" xml:space="preserve">
<g>
	<path fill="#3C1000" d="M239.5,22.8c-5.6,0-10,2.5-13.2,5.1c-21.9-19-49.8-29-79.6-27.9c-26.8,1-52.1,11.2-72,29
		c-3.2-3.1-8-6.2-14.3-6.2c-8,0-15.4,4.9-22,14.5C25.8,55.9-1.7,114.7,9,143.4c3.3,8.9,9.9,14.8,18.9,17.1c7.6,2,15,1.1,21.6-2.3
		c4.7,6.4,10.6,11.9,17.8,16.3c-0.3,0.2-0.5,0.5-0.8,0.7c-1.6,1.6-2.8,3.5-3.4,5.6c-3.9,1.1-7,3.1-9.2,6c-2.2,2.9-4.5,7.8-2.6,15.2
		c3,11.8,13.6,20.1,25.7,20.1c9.2,0,17.5-4.7,23.4-13.1c0.6-0.8,1.5-2.2,6.9-2.4c-3,9.4-4.7,18.8-4.7,26.5c0,6.2,1.1,11.6,3.3,16.3
		c-0.5,0-0.9,0-1.4,0c-9.8,0-17,6.2-19.7,16.9c-3.2,12.5-4.3,20.3-0.5,26c3.2,4.9,8.3,5.6,10.7,6c0.5,0.1,1.2,0.2,1.4,0.3
		c2.2,0.8,5.7,1.5,15.9,1.5c11.7,0,26.4-1,26.5-1c2-0.1,3.8-0.8,5.4-2.1c1.1-0.9,4.6-4.1,6.2-10.2c1.6,6.1,5.1,9.3,6.2,10.2
		c1.5,1.2,3.4,2,5.3,2.1c0.1,0,14.9,1,26.6,1c10.3,0,13.7-0.7,15.9-1.5c0.2-0.1,0.9-0.2,1.4-0.3c2.4-0.4,7.5-1.1,10.7-6
		c3.4-5.1,2.9-11.8,0.5-22c2.3,0.6,4.5,0.9,6.7,0.9c17.7,0,26.3-17.4,28.7-27.7c1-4.3-1.1-8.7-5.1-10.7c-0.8-0.4-1.7-0.7-2.6-0.8
		c4.8-2.4,8.8-6.2,11.4-11c4.2-7.7,2.2-13.7,0.7-16.6c-1.5-2.8-3.8-5.1-6.9-6.9c-0.1-2.2-0.7-4.3-1.9-6.3c-2.3-3.8-6.3-6.1-10.8-6.1
		c-4.2,0-8.2,1.9-11.2,3.9c-3.9-0.1-10.2-1.8-18.2-5c15.8-3.8,32.4-11,43.6-25.3c6.3,3,13.3,3.6,20.4,1.8c9-2.3,15.5-8.3,18.9-17.1
		c10.7-28.7-16.7-87.4-29.4-106C254.9,27.7,247.5,22.8,239.5,22.8z M215.7,228.3c-3.7-1.9-7.5-3.3-11.5-4.1
		c-0.5-3.7-1.3-7.7-2.3-11.7c3.5,0.7,4.5,1.5,5.1,3C208.9,220.7,211.9,225.1,215.7,228.3z M235.9,235.1c-0.1,0.1-1.9,2.1-4.6,2.1
		c-2,0-4.5-1.1-7.1-3.3c-0.5-0.4-1.1-0.9-1.6-1.3c4.3,1.8,9.2,2.5,13.9,1.9C236.2,234.7,236.1,234.9,235.9,235.1z"/>
	<g>
		<g>
			<path fill="#AC7C2F" d="M188.6,233.7c0,0,14.4-4.7,29.5,7.6c15.1,12.3,25.1,0,25.1,0s-8.6,38.3-40.7,9.4
				C202.5,250.7,186.3,239,188.6,233.7z"/>
			<path fill="#3C1000" d="M223.9,264.7c-7,0-14.9-3.9-23.4-11.5c-6.8-5-17.7-14.2-14.8-20.7c0.4-0.8,1.1-1.5,1.9-1.8
				c0.3-0.1,3.3-1,8-1c6,0,15.2,1.6,24.5,9.2c3.9,3.1,7.6,4.7,11.2,4.7c5.8,0,9.3-4.1,9.4-4.3c0.9-1.1,2.6-1.5,3.9-0.8
				c1.3,0.7,2,2.1,1.7,3.6C246.1,243,241,264.7,223.9,264.7L223.9,264.7z M192,236.3c1.5,2.7,6.7,7.7,12.4,11.8
				c0.1,0.1,0.2,0.1,0.3,0.2c7.3,6.6,13.8,10,19.2,10c6.2,0,10.3-4.6,12.8-9.2c-1.6,0.5-3.4,0.8-5.4,0.8c-5.1,0-10.2-2.1-15.2-6.2
				C206,235.6,196.4,235.7,192,236.3L192,236.3z"/>
		</g>
		<g>
			<path fill="#FFFFFF" d="M235.6,202.9c0,0,6.9-2.7,4.4-6.8c-2.5-4.1-10.2,2.2-10.2,2.2c-12,2.8-43.5-13.2-54.8-19.2
				c-6.2-7.4-13.5-12.3-21.2-12.3c-9.5,0-18.2,7.3-25.2,17.5c-15.5,3.3-37.6,6.7-46,2.4c0,0-5.9-8-9.3-4.6c-3.4,3.4,2.5,7.7,2.5,7.7
				s-18.5-3.2-15.2,9.9c3.4,13.1,21.4,19.1,32,3.9c5.9-8.4,17.2-6.5,28.5-5.9c-5.6,12.2-8.9,25.6-8.9,35.5c0,15,7.6,21.6,19,24.3
				c1.2,6.9,2.1,15.2,0.1,14.7c-3.5-0.9-31.2-26.9-37.3-3.5c-6.1,23.4-0.4,18.6,5.6,20.8c6.1,2.2,38.6,0,38.6,0s2.2-1.7,3-5.6
				c0.7-3.1,0.3-18.8,0.2-24.9c3.9,0.3,8,0.4,12.3,0.4c1.9,0,3.8,0,5.6-0.1c-0.2,7.4-0.4,21.7,0.2,24.5c0.9,3.9,3,5.6,3,5.6
				s32.5,2.2,38.6,0c6.1-2.2,11.7,2.6,5.6-20.8c-6.1-23.4-33.8,2.6-37.3,3.5c-1.9,0.5-1.2-6.9-0.1-13.5c15.1-1.8,25.8-7.7,25.8-25.5
				c0-9-2.7-20.7-7.3-31.9c11.1,1.9,23.9,0,28,10.9c6.5,17.4,25.5,16,32,4.1C254.4,204.4,235.6,202.9,235.6,202.9z"/>
			<path fill="#3C1000" d="M188.5,293.6c-11.4,0-25.9-1-26.1-1c-0.7,0-1.3-0.3-1.8-0.7c-0.3-0.2-3.1-2.6-4.2-7.4
				c-0.2-0.8-0.7-3.3-0.4-22c-0.8,0-1.6,0-2.4,0c-3.4,0-6.3-0.1-9-0.2c0.3,12.4,0.2,19.8-0.3,22.2c-1.1,4.9-3.8,7.2-4.2,7.4
				c-0.5,0.4-1.1,0.7-1.8,0.7c-0.1,0-14.7,1-26.1,1c-9.5,0-12.4-0.7-13.8-1.1c-0.8-0.3-1.7-0.4-2.7-0.6c-2.1-0.3-4.7-0.7-6.3-3.2
				c-2.1-3.2-1.8-8.9,1.3-20.9c2.6-10,8.8-12.1,13.6-12.1c8.5,0,18.4,6.9,24.3,11c0.1,0.1,0.3,0.2,0.4,0.3c-0.1-1.6-0.3-3.8-0.8-7.1
				c-13-3.8-19.4-12.7-19.4-26.9c0-9.3,2.7-21.3,7.4-32.6c-2.6-0.2-5-0.3-7.4-0.3c-7.2,0-11.2,1.5-13.7,5.2
				c-4.7,6.7-11.1,10.4-18.2,10.4c-9.2,0-17.3-6.3-19.6-15.3c-1-3.9-0.5-7.2,1.4-9.7c2.1-2.7,5.5-4.2,10.3-4.5
				c-0.1-0.4-0.2-0.9-0.2-1.4c-0.1-1.9,0.5-3.7,2-5.1c1.2-1.2,2.6-1.8,4.2-1.8c4.1,0,7.8,4.1,9.4,6.1c1.6,0.7,4.7,1.4,10.2,1.4
				c9.7,0,22.4-2.2,31.8-4.1c8.3-11.7,17.6-17.8,27.1-17.8c7.9,0,16,4.5,23.2,12.9c9,4.8,36.6,18.9,49.5,18.9c0.7,0,1.3,0,1.9-0.1
				c1.6-1.2,5.4-3.8,9-3.8c2.3,0,4.2,1,5.3,3c1.1,1.7,1.3,3.6,0.7,5.5c-0.2,0.4-0.3,0.9-0.6,1.3c3.3,1.1,6.8,2.9,8.6,6.2
				c1.1,2.1,2,5.6-0.7,10.5c-3.6,6.5-10.4,10.6-17.8,10.6c0,0,0,0,0,0c-8.9,0-16.3-5.7-19.9-15.1c-2.4-6.3-8.3-7.1-17.7-8
				c-0.8-0.1-1.6-0.1-2.4-0.2c3.6,10,5.6,20,5.6,28c0,21.2-14.3,26.6-26.2,28.4c-0.4,2.5-0.5,4.3-0.6,5.6c0.1-0.1,0.3-0.2,0.4-0.3
				c5.9-4.1,15.7-11,24.3-11c4.8,0,11,2.1,13.6,12.1c3.1,12,3.5,17.6,1.3,20.9c-1.7,2.5-4.3,2.9-6.3,3.2c-0.9,0.1-1.8,0.3-2.7,0.6
				C200.9,293,198,293.6,188.5,293.6L188.5,293.6z M164.1,286.4c3.8,0.2,15.1,0.9,24.4,0.9c8.5,0,11-0.5,11.6-0.8
				c1.4-0.5,2.8-0.7,3.9-0.9c0.7-0.1,1.7-0.2,2-0.4c0.3-0.4,1.1-2.8-2.2-15.7c-1.7-6.5-4.8-7.3-7.4-7.3c-6.5,0-15.7,6.4-20.6,9.9
				c-3,2.1-4.2,2.9-5.4,3.2c-0.3,0.1-0.7,0.1-0.9,0.1l0,0c-1.1,0-2.2-0.5-2.9-1.3c-1.2-1.4-2.1-3.7-0.2-15.9
				c0.2-1.4,1.4-2.5,2.8-2.7c16.3-2,23-8.4,23-22.4c0-8.5-2.6-20-7.1-30.7c-0.4-1.1-0.3-2.3,0.5-3.2c0.7-0.9,1.9-1.3,3-1.2
				c2.4,0.4,4.9,0.6,7.3,0.8c9,0.8,19.2,1.7,23.1,12.1c2.6,7,7.7,11,13.9,11h0c5.1,0,9.8-2.8,12.2-7.3c1.5-2.8,0.9-4,0.7-4.3
				c-1.5-2.7-7.6-4-10.4-4.3c-1.5-0.1-2.7-1.2-2.9-2.7c-0.2-1.5,0.6-2.9,2-3.4c1.4-0.6,2.8-1.6,2.9-2.1c-1.3,0-4.1,1.7-5.5,2.9
				c-0.4,0.3-0.8,0.5-1.3,0.6c-1.2,0.3-2.5,0.4-4,0.4c-14.3,0-41.9-14-53.1-20c-0.4-0.2-0.7-0.4-0.9-0.8c-4.3-5.1-11-11.1-18.8-11.1
				c-9.5,0-17.5,8.8-22.5,16.1c-0.5,0.7-1.2,1.2-2,1.3c-9.8,2.1-23.7,4.5-34.3,4.5c-6.2,0-10.7-0.8-13.8-2.4
				c-0.4-0.2-0.8-0.5-1.1-0.9c-1.5-2.1-3.9-4.1-4.8-4.2c0.2,0.5,1.3,2,2.4,2.8c1.2,0.9,1.6,2.5,1.1,3.8c-0.6,1.4-2,2.2-3.5,1.9
				c0,0-1.8-0.3-4.1-0.3c-3.6,0-6.2,0.7-7.2,2c-0.7,0.9-0.8,2.3-0.3,4.2c1.6,6.1,7.2,10.5,13.4,10.5c4.9,0,9.5-2.7,12.9-7.6
				c4.9-7,12.7-7.9,19-7.9c2.7,0,5.6,0.2,8.4,0.4c1.3,0.1,2.6,0.2,3.9,0.2c1.1,0.1,2,0.6,2.6,1.5c0.5,0.9,0.6,2,0.2,3
				c-5.3,11.6-8.6,24.7-8.6,34.2c0,12.1,5,18.4,16.6,21.2c1.2,0.3,2.2,1.3,2.4,2.6c2.2,13.2,1.3,15.6,0,17.1
				c-0.7,0.9-1.8,1.4-2.9,1.4c0,0,0,0,0,0c-0.3,0-0.7-0.1-0.9-0.1c-1.2-0.3-2.4-1.2-5.4-3.2c-4.9-3.5-14.1-9.9-20.6-9.9
				c-2.5,0-5.7,0.8-7.4,7.3c-3.3,12.9-2.5,15.3-2.2,15.7c0.2,0.1,1.3,0.3,1.9,0.4c1.1,0.2,2.5,0.4,3.9,0.9c0.7,0.2,3.1,0.8,11.6,0.8
				c9.2,0,20.6-0.6,24.4-0.9c0.4-0.6,1-1.7,1.4-3.2c0.3-1.4,0.5-8.5,0.1-24.1c0-0.9,0.3-1.8,1-2.4c0.7-0.6,1.6-0.9,2.5-0.9
				c3.4,0.3,7.2,0.4,12,0.4c1.9,0,3.7,0,5.6-0.1c0.9,0,1.7,0.3,2.3,0.9c0.6,0.6,1,1.5,0.9,2.3c-0.3,15.4-0.1,22.4,0.2,23.8
				C163.1,284.7,163.7,285.7,164.1,286.4L164.1,286.4z"/>
		</g>
		<g>
			<g>
				<g>
					<g>
						<g>
							<path fill="#FFFFFF" d="M46.5,117.4C44.3,60.1,89.4,11.8,147.1,9.7c57.8-2.2,106.3,42.5,108.5,99.9
								c2.2,57.4-39,68.3-96.8,70.5C101.1,182.2,48.6,174.8,46.5,117.4z"/>
							<path fill="#3C1000" d="M142.6,183.5c-45.1,0-97.1-7.5-99.3-66C42.2,89,52.4,61.7,72,40.7c19.6-21,46.2-33.1,75-34.2
								c60-2.2,109.6,43.8,111.8,103c2.4,64.5-50.3,71.9-99.8,73.8C153.1,183.4,147.8,183.5,142.6,183.5L142.6,183.5z M151.2,12.8
								c-1.3,0-2.6,0-3.9,0.1c-27.1,1-52.2,12.5-70.6,32.2c-18.4,19.7-28,45.4-27,72.3c1.6,41.4,30.2,59.8,93,59.8
								c5.1,0,10.3-0.1,16.1-0.3c59.3-2.2,95.7-14.3,93.7-67.2C250.4,55.3,205.9,12.8,151.2,12.8L151.2,12.8z"/>
						</g>
					</g>
				</g>
				<path fill="#AC7C2F" d="M196.9,146.9c0,17.9-18.4,23.1-41.5,23.1c-23.1,0-42.3-5.2-42.3-23.1c0-18,18.8-32.5,41.9-32.5
					C178.1,114.4,196.9,129,196.9,146.9z"/>
				<g>
					<path fill="#4C3E37" d="M166.4,130.3c0.2,4.7-5.3,8.6-12.2,8.9c-6.9,0.3-12.7-3.3-12.8-7.9c-0.2-4.7,5.3-8.6,12.2-8.9
						C160.4,122.1,166.2,125.6,166.4,130.3z"/>
					<path fill="#3C1000" d="M153.4,140.8c-7.4,0-13.4-4.1-13.6-9.4c-0.1-2.8,1.3-5.4,4.1-7.4c2.5-1.9,6-3,9.6-3.1l0.8,0
						c7.4,0,13.4,4.1,13.6,9.4c0.1,2.8-1.3,5.4-4.1,7.4c-2.5,1.9-6,3-9.6,3.1L153.4,140.8L153.4,140.8z M154.2,123.9l-0.7,0
						c-3,0.1-5.9,1-7.9,2.5c-1.9,1.4-2.9,3.1-2.8,4.8c0.1,3.6,4.9,6.5,10.6,6.5l0.7,0c3-0.1,5.9-1,7.9-2.5c1.9-1.4,2.9-3.1,2.8-4.8
						C164.7,126.8,159.9,123.9,154.2,123.9L154.2,123.9z"/>
				</g>
				<path fill="#3C1000" d="M211.8,110.1c0.3,8-5.9,14.7-13.9,15c-8,0.3-14.7-5.9-15-13.9c-0.3-8,5.9-14.7,13.9-15
					C204.8,95.9,211.5,102.1,211.8,110.1z"/>
				
					<ellipse transform="matrix(0.9993 -3.869839e-02 3.869839e-02 0.9993 -4.3429 4.1434)" fill="#3C1000" cx="104.9" cy="114.3" rx="14.4" ry="14.4"/>
				
					<ellipse transform="matrix(4.239268e-02 -0.9991 0.9991 4.239268e-02 -65.9464 226.5163)" fill="#F9D3C1" cx="85.2" cy="147.7" rx="14" ry="14"/>
				
					<ellipse transform="matrix(4.262025e-02 -0.9991 0.9991 4.262025e-02 69.7585 357.294)" fill="#F9D3C1" cx="221.3" cy="142.2" rx="14" ry="14"/>
				
					<ellipse transform="matrix(0.9993 -3.852209e-02 3.852209e-02 0.9993 -4.0724 7.9003)" fill="#FFFFFF" cx="203" cy="109.6" rx="5.6" ry="5.6"/>
				<path fill="#FFFFFF" d="M117.5,112.9c0.1,3.1-2.3,5.7-5.4,5.8c-3.1,0.1-5.7-2.3-5.8-5.4c-0.1-3.1,2.3-5.7,5.4-5.8
					C114.8,107.5,117.4,109.8,117.5,112.9z"/>
				<path fill="#3C1000" d="M143.3,160.3c-3.5,0-6.7-1.3-9.3-3.6c-2.7-2.5-4.3-5.9-4.4-9.6c-0.1-1.7,1.2-3.1,2.9-3.2
					c1.6-0.1,3.1,1.2,3.2,2.9c0.1,2,1,3.9,2.5,5.3c1.5,1.4,3.5,2.1,5.5,2c2-0.1,3.9-1,5.3-2.5c1.4-1.5,2.1-3.5,2-5.5
					c0,0,0-0.1,0-0.1c0-1.6,1.3-3,2.9-3c1.8-0.1,3.1,1.2,3.2,2.9c0.1,2.1,1,3.9,2.5,5.3c1.5,1.4,3.4,2.1,5.5,2
					c2.1-0.1,3.9-1,5.3-2.5c1.4-1.5,2.1-3.5,2-5.5c-0.1-1.7,1.2-3.1,2.9-3.2c1.7-0.1,3.1,1.2,3.2,2.9c0.2,3.7-1.1,7.2-3.6,9.9
					c-2.5,2.7-5.9,4.3-9.6,4.4c-3.7,0.1-7.2-1.1-9.9-3.6c-0.4-0.3-0.7-0.7-1-1.1c-0.3,0.4-0.6,0.8-0.9,1.1c-2.5,2.7-5.9,4.3-9.6,4.4
					C143.7,160.3,143.5,160.3,143.3,160.3L143.3,160.3z"/>
			</g>
			<g>
				<path fill="#AC7C2F" d="M71.2,39.8c0,0-10.1-18.5-24.8,3s-50,99.7-16.1,108.5C64.1,160,77.4,89.4,71.2,39.8z"/>
				<path fill="#3C1000" d="M35.9,155.2C35.9,155.2,35.9,155.2,35.9,155.2c-2.1,0-4.2-0.3-6.4-0.8c-7-1.8-11.9-6.2-14.5-13.2
					C5.3,115,32,58.2,43.8,41c5.4-7.8,11-11.8,16.7-11.8c8.5,0,13.3,8.7,13.5,9.1c0.2,0.4,0.3,0.7,0.4,1.1
					c4.5,35.8-0.7,85.2-19.2,106.1C49.6,151.9,43.1,155.2,35.9,155.2L35.9,155.2z M60.5,35.6c-3.5,0-7.4,3.1-11.4,9
					c-12.3,17.9-36.6,71.5-28,94.3c1.9,5,5.2,8,10.1,9.3c7.2,1.9,13.7-0.4,19.3-6.8c16.5-18.7,21.9-65.6,17.7-100.4
					C67.2,39.5,64.4,35.6,60.5,35.6L60.5,35.6z"/>
			</g>
			<g>
				<path fill="#AC7C2F" d="M228.8,39.8c0,0,10.1-18.5,24.8,3c14.7,21.5,49.9,99.7,16.1,108.5C235.9,160,222.6,89.4,228.8,39.8z"/>
				<path fill="#3C1000" d="M264.1,155.2c-7.2,0-13.7-3.2-19.3-9.6c-18.5-20.9-23.7-70.3-19.2-106.1c0-0.4,0.2-0.8,0.4-1.1
					c0.2-0.4,5-9.1,13.5-9.1c5.7,0,11.4,4,16.7,11.8C268,58.2,294.7,115,285,141.1c-2.6,7-7.5,11.4-14.5,13.2
					C268.3,154.9,266.2,155.2,264.1,155.2L264.1,155.2z M231.9,40.9c-4.2,34.9,1.2,81.7,17.7,100.4c5.7,6.4,12.1,8.7,19.3,6.8
					c4.9-1.3,8.2-4.3,10.1-9.3c8.5-22.8-15.8-76.4-28-94.3c-4-5.9-8-9-11.4-9C235.6,35.6,232.8,39.5,231.9,40.9L231.9,40.9z"/>
			</g>
		</g>
	</g>
</g>
</svg>
