<?xml version="1.0" encoding="iso-8859-1"?><!-- Generator: Adobe Illustrator 13.0.0, SVG Export Plug-In . SVG Version: 6.00 Build 14948)  --><!DOCTYPE svg PUBLIC "-//W3C//DTD SVG 1.1//EN" "http://www.w3.org/Graphics/SVG/1.1/DTD/svg11.dtd"><svg version="1.1" id="&#x30EC;&#x30A4;&#x30E4;&#x30FC;_1" xmlns="http://www.w3.org/2000/svg" xmlns:xlink="http://www.w3.org/1999/xlink" x="0px" y="0px" width="20px" height="20px" viewBox="0 0 20 20" style="enable-background:new 0 0 20 20;" xml:space="preserve"><g><g><g><path style="fill:#FFEBCD;" d="M10,18.5c-4.7,0-8.5-3.8-8.5-8.5S5.3,1.5,10,1.5s8.5,3.8,8.5,8.5S14.7,18.5,10,18.5L10,18.5z M10,8.2C9,8.2,8.2,9,8.2,10c0,1,0.8,1.8,1.8,1.8c1,0,1.8-0.8,1.8-1.8C11.8,9,11,8.2,10,8.2L10,8.2z"/></g><g><path style="fill:#EC6C1F;" d="M10,3c3.9,0,7,3.1,7,7c0,3.9-3.1,7-7,7c-3.9,0-7-3.1-7-7C3,6.1,6.1,3,10,3 M10,13.3c1.8,0,3.3-1.5,3.3-3.3S11.8,6.7,10,6.7S6.7,8.2,6.7,10S8.2,13.3,10,13.3 M10,0C4.5,0,0,4.5,0,10c0,5.5,4.5,10,10,10c5.5,0,10-4.5,10-10C20,4.5,15.5,0,10,0L10,0z M10,10.3c-0.2,0-0.3-0.1-0.3-0.3c0-0.2,0.1-0.3,0.3-0.3c0.2,0,0.3,0.1,0.3,0.3C10.3,10.2,10.2,10.3,10,10.3L10,10.3z"/></g></g><g><g><path d="M10,13.8c-2.1,0-3.8-1.7-3.8-3.8c0-2.1,1.7-3.8,3.8-3.8c2.1,0,3.8,1.7,3.8,3.8C13.8,12.1,12.1,13.8,10,13.8L10,13.8z"/></g><g><path d="M10,6.7c1.8,0,3.3,1.5,3.3,3.3s-1.5,3.3-3.3,3.3S6.7,11.8,6.7,10S8.2,6.7,10,6.7 M10,5.7c-2.4,0-4.3,1.9-4.3,4.3c0,2.4,1.9,4.3,4.3,4.3c2.4,0,4.3-1.9,4.3-4.3C14.3,7.6,12.4,5.7,10,5.7L10,5.7z"/></g></g></g><rect x="1.5" y="0.5" style="fill:none;" width="20" height="20"/></svg>